# xmcd CD database file
#
# Track frame offsets:
#	150
#	15454
#	42869
#	56521
#	83448
#	97025
#	120915
#	140792
#	161419
#	181221
#	216661
#	230576
#	253153
#	268080
#	282070
#	294710
#	315112
#
# Disc length: 4414 seconds
#
# Revision: 0
# Processed by: cddbd v1.5.1PL0 Copyright (c) Steve Scherf et al.
# Submitted via: CDex 1.51
#
DISCID=ed113c11
DTITLE=Lightnin' Hopkins - The Texas Bluesman
DYEAR=1900
DGENRE=Blues
TTITLE0=Mojo hand
TTITLE1=Cotton
TTITLE2=Little wait
TTITLE3=Hurricane Betsy
TTITLE4=Take me back, baby
TTITLE5=Really nothin' but blues
TTITLE6=Guitar lightnin'
TTITLE7=Woke up this morning
TTITLE8=Shake yourself
TTITLE9=California showers
TTITLE10=Goin' out
TTITLE11=Tom Moore blues
TTITLE12=I would if I could
TTITLE13=At home blues
TTITLE14=Watch my fingers
TTITLE15=Bud Russell blues
TTITLE16=Cut me out, baby
EXTD=
EXTT0=
EXTT1=
EXTT2=
EXTT3=
EXTT4=
EXTT5=
EXTT6=
EXTT7=
EXTT8=
EXTT9=
EXTT10=
EXTT11=
EXTT12=
EXTT13=
EXTT14=
EXTT15=
EXTT16=
PLAYORDER=
